<svg xmlns="http://www.w3.org/2000/svg" width="900" height="458" viewBox="0 0 900 458" role="img">
<rect width="100%" height="100%" fill="#ffffff"/>
<text x="24" y="34" font-size="22" font-weight="700" fill="#111827">Tournament winner simulation</text>
<text x="24" y="58" font-size="13" fill="#4b5563">Champion probability from bracket propagation</text>
<text x="24" y="102" font-size="13" fill="#111827">Argentina</text><rect x="235" y="84" width="515" height="22" rx="4" fill="#e5e7eb"/><rect x="235" y="84" width="515" height="22" rx="4" fill="#059669"/><text x="876" y="100" text-anchor="end" font-size="12" fill="#374151">25.3%</text>
<text x="24" y="136" font-size="13" fill="#111827">France</text><rect x="235" y="118" width="515" height="22" rx="4" fill="#e5e7eb"/><rect x="235" y="118" width="387" height="22" rx="4" fill="#059669"/><text x="876" y="134" text-anchor="end" font-size="12" fill="#374151">19.0%</text>
<text x="24" y="170" font-size="13" fill="#111827">Spain</text><rect x="235" y="152" width="515" height="22" rx="4" fill="#e5e7eb"/><rect x="235" y="152" width="364" height="22" rx="4" fill="#059669"/><text x="876" y="168" text-anchor="end" font-size="12" fill="#374151">17.9%</text>
<text x="24" y="204" font-size="13" fill="#111827">Brazil</text><rect x="235" y="186" width="515" height="22" rx="4" fill="#e5e7eb"/><rect x="235" y="186" width="199" height="22" rx="4" fill="#059669"/><text x="876" y="202" text-anchor="end" font-size="12" fill="#374151">9.8%</text>
<text x="24" y="238" font-size="13" fill="#111827">Germany</text><rect x="235" y="220" width="515" height="22" rx="4" fill="#e5e7eb"/><rect x="235" y="220" width="193" height="22" rx="4" fill="#059669"/><text x="876" y="236" text-anchor="end" font-size="12" fill="#374151">9.5%</text>
<text x="24" y="272" font-size="13" fill="#111827">England</text><rect x="235" y="254" width="515" height="22" rx="4" fill="#e5e7eb"/><rect x="235" y="254" width="122" height="22" rx="4" fill="#059669"/><text x="876" y="270" text-anchor="end" font-size="12" fill="#374151">6.0%</text>
<text x="24" y="306" font-size="13" fill="#111827">Portugal</text><rect x="235" y="288" width="515" height="22" rx="4" fill="#e5e7eb"/><rect x="235" y="288" width="68" height="22" rx="4" fill="#059669"/><text x="876" y="304" text-anchor="end" font-size="12" fill="#374151">3.4%</text>
<text x="24" y="340" font-size="13" fill="#111827">Netherlands</text><rect x="235" y="322" width="515" height="22" rx="4" fill="#e5e7eb"/><rect x="235" y="322" width="43" height="22" rx="4" fill="#059669"/><text x="876" y="338" text-anchor="end" font-size="12" fill="#374151">2.1%</text>
<text x="24" y="374" font-size="13" fill="#111827">Mexico</text><rect x="235" y="356" width="515" height="22" rx="4" fill="#e5e7eb"/><rect x="235" y="356" width="35" height="22" rx="4" fill="#059669"/><text x="876" y="372" text-anchor="end" font-size="12" fill="#374151">1.7%</text>
<text x="24" y="408" font-size="13" fill="#111827">Colombia</text><rect x="235" y="390" width="515" height="22" rx="4" fill="#e5e7eb"/><rect x="235" y="390" width="23" height="22" rx="4" fill="#059669"/><text x="876" y="406" text-anchor="end" font-size="12" fill="#374151">1.2%</text>
</svg>