<svg xmlns="http://www.w3.org/2000/svg" width="980" height="662" viewBox="0 0 980 662" role="img">
<rect width="100%" height="100%" fill="#ffffff"/>
<text x="24" y="34" font-size="22" font-weight="700" fill="#111827">Exact score probability by match</text>
<text x="24" y="58" font-size="13" fill="#4b5563">Top predicted final score before penalties</text>
<text x="24" y="102" font-size="13" fill="#111827">South Africa - Canada</text><rect x="235" y="84" width="595" height="22" rx="4" fill="#e5e7eb"/><rect x="235" y="84" width="497" height="22" rx="4" fill="#2563eb"/><text x="956" y="100" text-anchor="end" font-size="12" fill="#374151">1-1 - 14.1%</text>
<text x="24" y="136" font-size="13" fill="#111827">Brazil - Japan</text><rect x="235" y="118" width="595" height="22" rx="4" fill="#e5e7eb"/><rect x="235" y="118" width="494" height="22" rx="4" fill="#2563eb"/><text x="956" y="134" text-anchor="end" font-size="12" fill="#374151">1-1 - 14.0%</text>
<text x="24" y="170" font-size="13" fill="#111827">Germany - Paraguay</text><rect x="235" y="152" width="595" height="22" rx="4" fill="#e5e7eb"/><rect x="235" y="152" width="492" height="22" rx="4" fill="#2563eb"/><text x="956" y="168" text-anchor="end" font-size="12" fill="#374151">1-1 - 14.0%</text>
<text x="24" y="204" font-size="13" fill="#111827">Netherlands - Morocco</text><rect x="235" y="186" width="595" height="22" rx="4" fill="#e5e7eb"/><rect x="235" y="186" width="496" height="22" rx="4" fill="#2563eb"/><text x="956" y="202" text-anchor="end" font-size="12" fill="#374151">1-1 - 14.1%</text>
<text x="24" y="238" font-size="13" fill="#111827">Ivory Coast - Norway</text><rect x="235" y="220" width="595" height="22" rx="4" fill="#e5e7eb"/><rect x="235" y="220" width="465" height="22" rx="4" fill="#2563eb"/><text x="956" y="236" text-anchor="end" font-size="12" fill="#374151">1-1 - 13.2%</text>
<text x="24" y="272" font-size="13" fill="#111827">France - Sweden</text><rect x="235" y="254" width="595" height="22" rx="4" fill="#e5e7eb"/><rect x="235" y="254" width="383" height="22" rx="4" fill="#2563eb"/><text x="956" y="270" text-anchor="end" font-size="12" fill="#374151">2-0 - 10.9%</text>
<text x="24" y="306" font-size="13" fill="#111827">Mexico - Ecuador</text><rect x="235" y="288" width="595" height="22" rx="4" fill="#e5e7eb"/><rect x="235" y="288" width="595" height="22" rx="4" fill="#2563eb"/><text x="956" y="304" text-anchor="end" font-size="12" fill="#374151">1-0 - 16.9%</text>
<text x="24" y="340" font-size="13" fill="#111827">England - Congo DR</text><rect x="235" y="322" width="595" height="22" rx="4" fill="#e5e7eb"/><rect x="235" y="322" width="573" height="22" rx="4" fill="#2563eb"/><text x="956" y="338" text-anchor="end" font-size="12" fill="#374151">2-0 - 16.3%</text>
<text x="24" y="374" font-size="13" fill="#111827">Belgium - Senegal</text><rect x="235" y="356" width="595" height="22" rx="4" fill="#e5e7eb"/><rect x="235" y="356" width="491" height="22" rx="4" fill="#2563eb"/><text x="956" y="372" text-anchor="end" font-size="12" fill="#374151">1-1 - 13.9%</text>
<text x="24" y="408" font-size="13" fill="#111827">United States - Bosnia-Herzeg.</text><rect x="235" y="390" width="595" height="22" rx="4" fill="#e5e7eb"/><rect x="235" y="390" width="457" height="22" rx="4" fill="#2563eb"/><text x="956" y="406" text-anchor="end" font-size="12" fill="#374151">2-0 - 13.0%</text>
<text x="24" y="442" font-size="13" fill="#111827">Spain - Austria</text><rect x="235" y="424" width="595" height="22" rx="4" fill="#e5e7eb"/><rect x="235" y="424" width="503" height="22" rx="4" fill="#2563eb"/><text x="956" y="440" text-anchor="end" font-size="12" fill="#374151">2-0 - 14.3%</text>
<text x="24" y="476" font-size="13" fill="#111827">Portugal - Croatia</text><rect x="235" y="458" width="595" height="22" rx="4" fill="#e5e7eb"/><rect x="235" y="458" width="452" height="22" rx="4" fill="#2563eb"/><text x="956" y="474" text-anchor="end" font-size="12" fill="#374151">1-1 - 12.8%</text>
<text x="24" y="510" font-size="13" fill="#111827">Switzerland - Algeria</text><rect x="235" y="492" width="595" height="22" rx="4" fill="#e5e7eb"/><rect x="235" y="492" width="463" height="22" rx="4" fill="#2563eb"/><text x="956" y="508" text-anchor="end" font-size="12" fill="#374151">1-1 - 13.1%</text>
<text x="24" y="544" font-size="13" fill="#111827">Australia - Egypt</text><rect x="235" y="526" width="595" height="22" rx="4" fill="#e5e7eb"/><rect x="235" y="526" width="534" height="22" rx="4" fill="#2563eb"/><text x="956" y="542" text-anchor="end" font-size="12" fill="#374151">0-0 - 15.2%</text>
<text x="24" y="578" font-size="13" fill="#111827">Argentina - Cape Verde</text><rect x="235" y="560" width="595" height="22" rx="4" fill="#e5e7eb"/><rect x="235" y="560" width="584" height="22" rx="4" fill="#2563eb"/><text x="956" y="576" text-anchor="end" font-size="12" fill="#374151">2-0 - 16.6%</text>
<text x="24" y="612" font-size="13" fill="#111827">Colombia - Ghana</text><rect x="235" y="594" width="595" height="22" rx="4" fill="#e5e7eb"/><rect x="235" y="594" width="539" height="22" rx="4" fill="#2563eb"/><text x="956" y="610" text-anchor="end" font-size="12" fill="#374151">1-0 - 15.3%</text>
</svg>